HIERARCHY
ROOT hip
{
  OFFSET 0 90.174 2.4664
  CHANNELS 6 Xposition Yposition Zposition Zrotation Xrotation Yrotation
  JOINT abdomen
  {
    OFFSET 0 -1.186 -1.5018
    CHANNELS 6 Xposition Yposition Zposition Zrotation Xrotation Yrotation
    JOINT abdomen2
    {
      OFFSET 0 9.964 0.2134
      CHANNELS 6 Xposition Yposition Zposition Zrotation Xrotation Yrotation
      JOINT chest
      {
        OFFSET 0 13.134 -3.2573
        CHANNELS 6 Xposition Yposition Zposition Zrotation Xrotation Yrotation
        JOINT neck
        {
          OFFSET 0 20.686 -1.6905
          CHANNELS 6 Xposition Yposition Zposition Zrotation Xrotation Yrotation
          JOINT head
          {
            OFFSET 0 7.238 -0.1237
            CHANNELS 6 Xposition Yposition Zposition Zrotation Xrotation Yrotation
            End Site
            {
              OFFSET 0 0 0
            }
          }
        }
        JOINT lCollar
        {
          OFFSET 1.7069 20.075 5.0056
          CHANNELS 6 Xposition Yposition Zposition Zrotation Xrotation Yrotation
          JOINT lShldr
          {
            OFFSET 13.6458 -0.047 -4.849
            CHANNELS 6 Xposition Yposition Zposition Zrotation Xrotation Yrotation
            JOINT lForeArm
            {
              OFFSET 28.3255 -0.9759 2.2888
              CHANNELS 6 Xposition Yposition Zposition Zrotation Xrotation Yrotation
              JOINT lHand
              {
                OFFSET 22.1583 -0.53 10.8316
                CHANNELS 6 Xposition Yposition Zposition Zrotation Xrotation Yrotation
                JOINT lThumb1
                {
                  OFFSET 0.786 0.112 2.5817
                  CHANNELS 6 Xposition Yposition Zposition Zrotation Xrotation Yrotation
                  JOINT lThumb2
                  {
                    OFFSET 0.3601 -0.878 4.2331
                    CHANNELS 6 Xposition Yposition Zposition Zrotation Xrotation Yrotation
                    JOINT lThumb2_End
                    {
                      OFFSET 1.8127 -1.216 2.2227
                      CHANNELS 6 Xposition Yposition Zposition Zrotation Xrotation Yrotation
                      End Site
                      {
                        OFFSET 0.0181 -0.0122 0.0222
                      }
                    }
                  }
                }
                JOINT lCarpal1
                {
                  OFFSET 0.9571 1.114 1.7695
                  CHANNELS 6 Xposition Yposition Zposition Zrotation Xrotation Yrotation
                  JOINT lIndex1
                  {
                    OFFSET 4.1246 0.487 4.1451
                    CHANNELS 6 Xposition Yposition Zposition Zrotation Xrotation Yrotation
                    JOINT lIndex2
                    {
                      OFFSET 3.4052 -1.454 2.7682
                      CHANNELS 6 Xposition Yposition Zposition Zrotation Xrotation Yrotation
                      JOINT lIndex2_End
                      {
                        OFFSET 1.4531 -1.795 1.2713
                        CHANNELS 6 Xposition Yposition Zposition Zrotation Xrotation Yrotation
                        End Site
                        {
                          OFFSET 0.0145 -0.0179 0.0127
                        }
                      }
                    }
                  }
                  JOINT lMid1
                  {
                    OFFSET 5.6954 0.21 2.1184
                    CHANNELS 6 Xposition Yposition Zposition Zrotation Xrotation Yrotation
                    JOINT lMid2
                    {
                      OFFSET 3.9766 -1.54 2.3863
                      CHANNELS 6 Xposition Yposition Zposition Zrotation Xrotation Yrotation
                      JOINT lMid2_End
                      {
                        OFFSET 1.4042 -1.926 1.125
                        CHANNELS 6 Xposition Yposition Zposition Zrotation Xrotation Yrotation
                        End Site
                        {
                          OFFSET 0.014 -0.0193 0.0113
                        }
                      }
                    }
                  }
                }
                JOINT lCarpal2
                {
                  OFFSET 2.0956 0.66 -0.3894
                  CHANNELS 6 Xposition Yposition Zposition Zrotation Xrotation Yrotation
                  JOINT lRing1
                  {
                    OFFSET 5.0395 -0.09 2.4971
                    CHANNELS 6 Xposition Yposition Zposition Zrotation Xrotation Yrotation
                    JOINT lRing2
                    {
                      OFFSET 3.7921 -1.552 1.4806
                      CHANNELS 6 Xposition Yposition Zposition Zrotation Xrotation Yrotation
                      JOINT lRing2_End
                      {
                        OFFSET 1.4655 -1.808 0.9609
                        CHANNELS 6 Xposition Yposition Zposition Zrotation Xrotation Yrotation
                        End Site
                        {
                          OFFSET 0.0147 -0.0181 0.0096
                        }
                      }
                    }
                  }
                  JOINT lPinky1
                  {
                    OFFSET 4.9141 -1.269 0.3591
                    CHANNELS 6 Xposition Yposition Zposition Zrotation Xrotation Yrotation
                    JOINT lPinky2
                    {
                      OFFSET 3.1477 -1.685 0.8462
                      CHANNELS 6 Xposition Yposition Zposition Zrotation Xrotation Yrotation
                      JOINT lPinky2_End
                      {
                        OFFSET 0.8055 -1.585 0.7955
                        CHANNELS 6 Xposition Yposition Zposition Zrotation Xrotation Yrotation
                        End Site
                        {
                          OFFSET 0.0081 -0.0158 0.008
                        }
                      }
                    }
                  }
                }
              }
            }
          }
        }
        JOINT rCollar
        {
          OFFSET -1.7069 20.075 5.0056
          CHANNELS 6 Xposition Yposition Zposition Zrotation Xrotation Yrotation
          JOINT rShldr
          {
            OFFSET -13.6458 -0.047 -4.849
            CHANNELS 6 Xposition Yposition Zposition Zrotation Xrotation Yrotation
            JOINT rForeArm
            {
              OFFSET -28.3255 -0.9759 2.2888
              CHANNELS 6 Xposition Yposition Zposition Zrotation Xrotation Yrotation
              JOINT rHand
              {
                OFFSET -22.1583 -0.53 10.8316
                CHANNELS 6 Xposition Yposition Zposition Zrotation Xrotation Yrotation
                JOINT rThumb1
                {
                  OFFSET -0.786 0.112 2.5817
                  CHANNELS 6 Xposition Yposition Zposition Zrotation Xrotation Yrotation
                  JOINT rThumb2
                  {
                    OFFSET -0.3601 -0.878 4.2331
                    CHANNELS 6 Xposition Yposition Zposition Zrotation Xrotation Yrotation
                    JOINT rThumb2_End
                    {
                      OFFSET -1.8127 -1.216 2.2227
                      CHANNELS 6 Xposition Yposition Zposition Zrotation Xrotation Yrotation
                      End Site
                      {
                        OFFSET -0.0181 -0.0122 0.0222
                      }
                    }
                  }
                }
                JOINT rCarpal1
                {
                  OFFSET -0.9571 1.114 1.7695
                  CHANNELS 6 Xposition Yposition Zposition Zrotation Xrotation Yrotation
                  JOINT rIndex1
                  {
                    OFFSET -4.1246 0.487 4.1451
                    CHANNELS 6 Xposition Yposition Zposition Zrotation Xrotation Yrotation
                    JOINT rIndex2
                    {
                      OFFSET -3.4052 -1.454 2.7682
                      CHANNELS 6 Xposition Yposition Zposition Zrotation Xrotation Yrotation
                      JOINT rIndex2_End
                      {
                        OFFSET -1.4531 -1.795 1.2713
                        CHANNELS 6 Xposition Yposition Zposition Zrotation Xrotation Yrotation
                        End Site
                        {
                          OFFSET -0.0145 -0.018 0.0127
                        }
                      }
                    }
                  }
                  JOINT rMid1
                  {
                    OFFSET -5.6954 0.21 2.1184
                    CHANNELS 6 Xposition Yposition Zposition Zrotation Xrotation Yrotation
                    JOINT rMid2
                    {
                      OFFSET -3.9766 -1.54 2.3863
                      CHANNELS 6 Xposition Yposition Zposition Zrotation Xrotation Yrotation
                      JOINT rMid2_End
                      {
                        OFFSET -1.4042 -1.926 1.125
                        CHANNELS 6 Xposition Yposition Zposition Zrotation Xrotation Yrotation
                        End Site
                        {
                          OFFSET -0.014 -0.0193 0.0113
                        }
                      }
                    }
                  }
                }
                JOINT rCarpal2
                {
                  OFFSET -2.0956 0.66 -0.3894
                  CHANNELS 6 Xposition Yposition Zposition Zrotation Xrotation Yrotation
                  JOINT rRing1
                  {
                    OFFSET -5.0395 -0.09 2.4971
                    CHANNELS 6 Xposition Yposition Zposition Zrotation Xrotation Yrotation
                    JOINT rRing2
                    {
                      OFFSET -3.7921 -1.552 1.4806
                      CHANNELS 6 Xposition Yposition Zposition Zrotation Xrotation Yrotation
                      JOINT rRing2_End
                      {
                        OFFSET -1.4655 -1.808 0.9609
                        CHANNELS 6 Xposition Yposition Zposition Zrotation Xrotation Yrotation
                        End Site
                        {
                          OFFSET -0.0147 -0.0181 0.0096
                        }
                      }
                    }
                  }
                  JOINT rPinky1
                  {
                    OFFSET -4.9141 -1.269 0.3592
                    CHANNELS 6 Xposition Yposition Zposition Zrotation Xrotation Yrotation
                    JOINT rPinky2
                    {
                      OFFSET -3.1477 -1.685 0.8462
                      CHANNELS 6 Xposition Yposition Zposition Zrotation Xrotation Yrotation
                      JOINT rPinky2_End
                      {
                        OFFSET -0.8055 -1.585 0.7955
                        CHANNELS 6 Xposition Yposition Zposition Zrotation Xrotation Yrotation
                        End Site
                        {
                          OFFSET -0.0081 -0.0158 0.008
                        }
                      }
                    }
                  }
                }
              }
            }
          }
        }
      }
    }
  }
  JOINT lThigh
  {
    OFFSET 8.367 -8.2066 0.5982
    CHANNELS 6 Xposition Yposition Zposition Zrotation Xrotation Yrotation
    JOINT lShin
    {
      OFFSET 2.1923 -43.463 -0.4932
      CHANNELS 6 Xposition Yposition Zposition Zrotation Xrotation Yrotation
      JOINT lFoot
      {
        OFFSET 0.7333 -45.8593 -2.6451
        CHANNELS 6 Xposition Yposition Zposition Zrotation Xrotation Yrotation
        End Site
        {
          OFFSET 2.6618 -4.2699 12.3931
        }
      }
    }
  }
  JOINT rThigh
  {
    OFFSET -8.367 -8.2066 0.5982
    CHANNELS 6 Xposition Yposition Zposition Zrotation Xrotation Yrotation
    JOINT rShin
    {
      OFFSET -2.1923 -43.463 -0.4931
      CHANNELS 6 Xposition Yposition Zposition Zrotation Xrotation Yrotation
      JOINT rFoot
      {
        OFFSET -0.7333 -45.8593 -2.6451
        CHANNELS 6 Xposition Yposition Zposition Zrotation Xrotation Yrotation
        End Site
        {
          OFFSET -2.6618 -4.2699 12.3931
        }
      }
    }
  }
}
MOTION
Frames:	4
Frame Time:	0.0333333
0 90.174 2.4664 0 0 -0 0 -1.186 -1.5018 0 0 -0 0 9.964 0.2134 0 0 -0 0 13.134 -3.2573 0 0 -0 0 20.686 -1.6905 0 0 -0 0 7.238 -0.1237 0 0 -0 1.7069 20.075 5.0056 0 0 -0 13.6458 -0.047 -4.849 1.66051 0.0835086 5.75766 28.3255 -0.9759 2.2888 -0.0175111 0.895433 15.7816 22.1583 -0.53 10.8316 7.95139e-016 -1.98785e-016 -0 0.786 0.112 2.5817 5.46658e-016 -3.97569e-016 -0 0.3601 -0.878 4.2331 5.96354e-016 0 -0 1.8127 -1.216 2.2227 3.97569e-016 1.98785e-016 9.54166e-015 0.9571 1.114 1.7695 1.49089e-016 -3.97569e-016 -0 4.1246 0.487 4.1451 6.4605e-016 0 3.18055e-015 3.4052 -1.454 2.7682 5.96354e-016 0 3.18055e-015 1.4531 -1.795 1.2713 8.94531e-016 -1.98785e-016 6.36111e-015 5.6954 0.21 2.1184 6.4605e-016 0 3.18055e-015 3.9766 -1.54 2.3863 5.96354e-016 0 3.18055e-015 1.4042 -1.926 1.125 8.94531e-016 -1.98785e-016 6.36111e-015 2.0956 0.66 -0.3894 1.49089e-016 -3.97569e-016 -0 5.0395 -0.09 2.4971 6.4605e-016 0 3.18055e-015 3.7921 -1.552 1.4806 5.96354e-016 0 3.18055e-015 1.4655 -1.808 0.9609 8.94531e-016 -1.98785e-016 6.36111e-015 4.9141 -1.269 0.3591 6.4605e-016 0 3.18055e-015 3.1477 -1.685 0.8462 5.96354e-016 0 3.18055e-015 0.8055 -1.585 0.7955 8.94531e-016 -1.98785e-016 6.36111e-015 -1.7069 20.075 5.0056 0 0 -0 -13.6458 -0.047 -4.849 -1.4496 0.0636048 -5.0245 -28.3255 -0.9759 2.2888 -1.74811 1.20616 -16.8394 -22.1583 -0.53 10.8316 -1.19271e-015 1.98785e-016 -3.18055e-015 -0.786 0.112 2.5817 -3.97569e-016 1.98785e-016 -3.18055e-015 -0.3601 -0.878 4.2331 -2.98177e-016 1.98785e-016 -3.18055e-015 -1.8127 -1.216 2.2227 -2.98177e-016 3.97569e-016 -0 -0.9571 1.114 1.7695 4.96962e-016 0 -6.36111e-015 -4.1246 0.487 4.1451 -9.93923e-017 3.97569e-016 -0 -3.4052 -1.454 2.7682 -8.94531e-016 5.96354e-016 -0 -1.4531 -1.795 1.2713 -3.97569e-016 3.97569e-016 -0 -5.6954 0.21 2.1184 -9.93923e-017 3.97569e-016 -0 -3.9766 -1.54 2.3863 -8.94531e-016 5.96354e-016 -0 -1.4042 -1.926 1.125 -3.97569e-016 3.97569e-016 -0 -2.0956 0.66 -0.3894 4.96962e-016 0 -6.36111e-015 -5.0395 -0.09 2.4971 -9.93923e-017 3.97569e-016 -0 -3.7921 -1.552 1.4806 -8.94531e-016 5.96354e-016 -0 -1.4655 -1.808 0.9609 -3.97569e-016 3.97569e-016 -0 -4.9141 -1.269 0.3592 -9.93923e-017 3.97569e-016 -0 -3.1477 -1.685 0.8462 -8.94531e-016 5.96354e-016 -0 -0.8055 -1.585 0.7955 -3.97569e-016 3.97569e-016 -0 8.367 -8.2066 0.5982 -4.66115 -1.03232 0.120763 2.1923 -43.463 -0.4932 0.00990601 1.55097 0.177175 0.7333 -45.8593 -2.6451 4.65196 -0.54114 -0.255042 -8.367 -8.2066 0.5982 4.66115 -1.03222 -0.120763 -2.1923 -43.463 -0.4931 -0.00990459 1.5509 -0.177176 -0.7333 -45.8593 -2.6451 -4.65196 -0.541171 0.255041 
-31.4517 28.845 -12.2272 180 -64.4891 180 -3.55271e-015 -1.186 -1.5018 -0.0568685 8.11648 -0.0753909 -3.55271e-015 9.964 0.2134 -0.104419 16.233 -0.144763 -3.55271e-015 13.134 -3.2573 -0.104419 16.233 -0.144763 0 20.686 -1.6905 -1.0095e-006 13.2993 3.00636e-007 -3.55271e-015 7.238 -0.1237 2.96481e-008 6.6286 -7.00681e-008 1.7069 20.075 5.0056 1.06557 0.363345 3.94851 13.6458 -0.047 -4.849 -38.0536 8.31321 17.8282 28.3255 -0.9759 2.2888 7.83939 25.2551 -4.85012 22.1583 -0.53 10.8316 -0.172041 32.9284 14.8131 0.786 0.112 2.5817 7.55382e-015 -1.39149e-015 1.59028e-015 0.3601 -0.878 4.2331 1.72735e-006 -7.07489e-007 -1.86298e-007 1.8127 -1.216 2.2227 4.39811e-015 1.59028e-015 -1.59028e-015 0.9571 1.114 1.7695 1.19271e-015 -7.95139e-016 3.18055e-015 4.1246 0.487 4.1451 1.0635e-014 -2.38542e-015 4.77083e-015 3.4052 -1.454 2.7682 1.72735e-006 -7.07489e-007 -1.86298e-007 1.4531 -1.795 1.2713 1.11816e-015 1.98785e-015 -3.18055e-015 5.6954 0.21 2.1184 1.0635e-014 -2.38542e-015 4.77083e-015 3.9766 -1.54 2.3863 1.72735e-006 -7.07489e-007 -1.86298e-007 1.4042 -1.926 1.125 1.11816e-015 1.98785e-015 -3.18055e-015 2.0956 0.66 -0.3894 1.19271e-015 -7.95139e-016 3.18055e-015 5.0395 -0.09 2.4971 1.0635e-014 -2.38542e-015 4.77083e-015 3.7921 -1.552 1.4806 1.72735e-006 -7.07489e-007 -1.86298e-007 1.4655 -1.808 0.9609 1.11816e-015 1.98785e-015 -3.18055e-015 4.9141 -1.269 0.3591 1.0635e-014 -2.38542e-015 4.77083e-015 3.1477 -1.685 0.8462 1.72735e-006 -7.07489e-007 -1.86298e-007 0.8055 -1.585 0.7955 1.11816e-015 1.98785e-015 -3.18055e-015 -1.7069 20.075 5.0056 -1.06619 0.3628 -3.95157 -13.6458 -0.047 -4.849 38.2523 8.25016 -17.1239 -28.3255 -0.9759 2.2888 -9.45523 25.0811 4.43905 -22.1583 -0.53 10.8316 -0.354417 33.3233 -13.7162 -0.786 0.112 2.5817 -5.09386e-015 -9.93923e-017 -1.59028e-015 -0.3601 -0.878 4.2331 -1.88845e-015 2.98177e-016 -0 -1.8127 -1.216 2.2227 1.41634e-015 6.95746e-016 1.59028e-015 -0.9571 1.114 1.7695 -1.9133e-015 -1.98785e-016 -1.59028e-015 -4.1246 0.487 4.1451 -2.03754e-015 4.96962e-016 7.95139e-015 -3.4052 -1.454 2.7682 1.30452e-015 9.93923e-017 -1.59028e-015 -1.4531 -1.795 1.2713 -1.83876e-015 -2.98177e-016 -1.59028e-015 -5.6954 0.21 2.1184 -2.03754e-015 4.96962e-016 7.95139e-015 -3.9766 -1.54 2.3863 1.30452e-015 9.93923e-017 -1.59028e-015 -1.4042 -1.926 1.125 -1.83876e-015 -2.98177e-016 -1.59028e-015 -2.0956 0.66 -0.3894 -1.9133e-015 -1.98785e-016 -1.59028e-015 -5.0395 -0.09 2.4971 -2.03754e-015 4.96962e-016 7.95139e-015 -3.7921 -1.552 1.4806 1.30452e-015 9.93923e-017 -1.59028e-015 -1.4655 -1.808 0.9609 -1.83876e-015 -2.98177e-016 -1.59028e-015 -4.9141 -1.269 0.3592 -2.03754e-015 4.96962e-016 7.95139e-015 -3.1477 -1.685 0.8462 1.30452e-015 9.93923e-017 -1.59028e-015 -0.8055 -1.585 0.7955 -1.83876e-015 -2.98177e-016 -1.59028e-015 8.367 -8.2066 0.5982 133.273 -77.2757 144.833 2.1923 -43.463 -0.4932 7.07839 8.92197 -0.247989 0.7333 -45.8593 -2.6451 7.65043 22.3963 -4.66502 -8.367 -8.2066 0.5982 -153.783 -69.8322 -166.522 -2.1923 -43.463 -0.4931 -9.24456 27.271 8.27438 -0.7333 -45.8593 -2.6451 -9.75116 15.1444 1.07541 
-45.5136 11.6407 -12.1604 180 -12.2851 180 0 -1.186 -1.5018 -0.0854724 11.8498 -0.10686 0 9.964 0.2134 -0.152863 23.6998 -0.201907 7.10543e-015 13.134 -3.2573 -0.152863 23.6998 -0.201907 0 20.686 -1.6905 2.91933e-007 19.4466 -2.33096e-007 7.10543e-015 7.238 -0.1237 -2.12845e-008 9.79465 -2.20621e-008 1.7069 20.075 5.0056 1.82342 0.417575 5.59934 13.6458 -0.047 -4.849 -57.2634 11.6753 23.5261 28.3255 -0.9759 2.2888 17.6671 33.1342 -17.6285 22.1583 -0.53 10.8316 -7.33071 47.7943 24.0747 0.786 0.112 2.5817 -6.50918e-007 -2.53542e-008 -3.07662e-006 0.3601 -0.878 4.2331 8.33817e-007 5.87377e-007 1.52621e-006 1.8127 -1.216 2.2227 -1.19271e-015 1.59028e-015 -9.54166e-015 0.9571 1.114 1.7695 -1.19271e-015 0 -0 4.1246 0.487 4.1451 -6.50918e-007 -2.53542e-008 -3.07662e-006 3.4052 -1.454 2.7682 8.33817e-007 5.87377e-007 1.52621e-006 1.4531 -1.795 1.2713 -1.19271e-015 0 -9.54166e-015 5.6954 0.21 2.1184 -6.50918e-007 -2.53542e-008 -3.07662e-006 3.9766 -1.54 2.3863 8.33817e-007 5.87377e-007 1.52621e-006 1.4042 -1.926 1.125 -1.19271e-015 0 -9.54166e-015 2.0956 0.66 -0.3894 -1.19271e-015 0 -0 5.0395 -0.09 2.4971 -6.50918e-007 -2.53542e-008 -3.07662e-006 3.7921 -1.552 1.4806 8.33817e-007 5.87377e-007 1.52621e-006 1.4655 -1.808 0.9609 -1.19271e-015 0 -9.54166e-015 4.9141 -1.269 0.3591 -6.50918e-007 -2.53542e-008 -3.07662e-006 3.1477 -1.685 0.8462 8.33817e-007 5.87377e-007 1.52621e-006 0.8055 -1.585 0.7955 -1.19271e-015 0 -9.54166e-015 -1.7069 20.075 5.0056 -1.83389 0.420289 -5.6014 -13.6458 -0.047 -4.849 57.468 11.5864 -22.8443 -28.3255 -0.9759 2.2888 -19.1532 32.7569 17.3701 -22.1583 -0.53 10.8316 6.26566 48.4712 -22.241 -0.786 0.112 2.5817 -2.38542e-015 7.95139e-016 9.54166e-015 -0.3601 -0.878 4.2331 -1.76556e-031 3.18055e-015 3.18055e-015 -1.8127 -1.216 2.2227 -7.95139e-016 1.59028e-015 9.54166e-015 -0.9571 1.114 1.7695 -2.38542e-015 0 9.54166e-015 -4.1246 0.487 4.1451 -7.06225e-031 3.18055e-015 1.27222e-014 -3.4052 -1.454 2.7682 -1.19271e-015 1.59028e-015 6.36111e-015 -1.4531 -1.795 1.2713 -2.78299e-015 3.97569e-015 3.18055e-015 -5.6954 0.21 2.1184 -7.06225e-031 3.18055e-015 1.27222e-014 -3.9766 -1.54 2.3863 -1.19271e-015 1.59028e-015 6.36111e-015 -1.4042 -1.926 1.125 -2.78299e-015 3.97569e-015 3.18055e-015 -2.0956 0.66 -0.3894 -2.38542e-015 0 9.54166e-015 -5.0395 -0.09 2.4971 -7.06225e-031 3.18055e-015 1.27222e-014 -3.7921 -1.552 1.4806 -1.19271e-015 1.59028e-015 6.36111e-015 -1.4655 -1.808 0.9609 -2.78299e-015 3.97569e-015 3.18055e-015 -4.9141 -1.269 0.3592 -7.06225e-031 3.18055e-015 1.27222e-014 -3.1477 -1.685 0.8462 -1.19271e-015 1.59028e-015 6.36111e-015 -0.8055 -1.585 0.7955 -2.78299e-015 3.97569e-015 3.18055e-015 8.367 -8.2066 0.5982 155.451 -37.6116 162.219 2.1923 -43.463 -0.4932 10.3058 8.87457 -0.00615043 0.7333 -45.8593 -2.6451 11.1474 33.0726 -7.86231 -8.367 -8.2066 0.5982 -159.896 -24.4975 -168.524 -2.1923 -43.463 -0.4931 -15.8556 35.9097 14.0655 -0.7333 -45.8593 -2.6451 -12.8529 22.5557 0.64231 
-42.3924 15.0357 -11.3079 180 -23.3878 180 0 -1.186 -1.5018 -0.0812144 11.2005 -0.0991705 0 9.964 0.2134 -0.146549 22.401 -0.187329 -7.10543e-015 13.134 -3.2573 -0.146549 22.401 -0.18733 0 20.686 -1.6905 -9.43247e-006 18.4432 2.75111e-006 -7.10543e-015 7.238 -0.1237 8.86404e-008 9.49812 -2.38459e-008 1.7069 20.075 5.0056 2.30708 0.164962 4.95269 13.6458 -0.047 -4.849 -53.4026 10.8478 22.4017 28.3255 -0.9759 2.2888 15.0084 31.7036 -15.155 22.1583 -0.53 10.8316 -5.4465 44.3122 21.9246 0.786 0.112 2.5817 -1.11458e-006 1.04783e-006 1.66092e-007 0.3601 -0.878 4.2331 -9.22567e-007 2.21272e-007 7.87831e-008 1.8127 -1.216 2.2227 -1.94114e-006 8.55826e-007 2.01221e-007 0.9571 1.114 1.7695 2.08724e-015 1.98785e-015 -6.36111e-015 4.1246 0.487 4.1451 -1.11458e-006 1.04783e-006 1.66092e-007 3.4052 -1.454 2.7682 -9.22567e-007 2.21272e-007 7.87831e-008 1.4531 -1.795 1.2713 -1.94114e-006 8.55826e-007 2.01221e-007 5.6954 0.21 2.1184 -1.11458e-006 1.04783e-006 1.66092e-007 3.9766 -1.54 2.3863 -9.22567e-007 2.21272e-007 7.87831e-008 1.4042 -1.926 1.125 -1.94114e-006 8.55826e-007 2.01221e-007 2.0956 0.66 -0.3894 2.08724e-015 1.98785e-015 -6.36111e-015 5.0395 -0.09 2.4971 -1.11458e-006 1.04783e-006 1.66092e-007 3.7921 -1.552 1.4806 -9.22567e-007 2.21272e-007 7.87831e-008 1.4655 -1.808 0.9609 -1.94114e-006 8.55826e-007 2.01221e-007 4.9141 -1.269 0.3591 -1.11458e-006 1.04783e-006 1.66092e-007 3.1477 -1.685 0.8462 -9.22567e-007 2.21272e-007 7.87831e-008 0.8055 -1.585 0.7955 -1.94114e-006 8.55826e-007 2.01221e-007 -1.7069 20.075 5.0056 -2.33668 0.174741 -4.94969 -13.6458 -0.047 -4.849 53.6362 10.7502 -21.7412 -28.3255 -0.9759 2.2888 -16.4386 31.3965 14.7921 -22.1583 -0.53 10.8316 4.53018 44.9247 -20.3056 -0.786 0.112 2.5817 -1.98785e-015 1.59028e-015 -0 -0.3601 -0.878 4.2331 -4.17448e-015 1.98785e-015 6.36111e-015 -1.8127 -1.216 2.2227 1.32417e-031 2.38542e-015 -3.18055e-015 -0.9571 1.114 1.7695 -1.98785e-016 1.59028e-015 3.18055e-015 -4.1246 0.487 4.1451 -1.78906e-015 -3.97569e-016 9.54166e-015 -3.4052 -1.454 2.7682 -2.78299e-015 1.98785e-015 3.18055e-015 -1.4531 -1.795 1.2713 -3.18055e-015 3.18055e-015 -3.18055e-015 -5.6954 0.21 2.1184 -1.78906e-015 -3.97569e-016 9.54166e-015 -3.9766 -1.54 2.3863 -2.78299e-015 1.98785e-015 3.18055e-015 -1.4042 -1.926 1.125 -3.18055e-015 3.18055e-015 -3.18055e-015 -2.0956 0.66 -0.3894 -1.98785e-016 1.59028e-015 3.18055e-015 -5.0395 -0.09 2.4971 -1.78906e-015 -3.97569e-016 9.54166e-015 -3.7921 -1.552 1.4806 -2.78299e-015 1.98785e-015 3.18055e-015 -1.4655 -1.808 0.9609 -3.18055e-015 3.18055e-015 -3.18055e-015 -4.9141 -1.269 0.3592 -1.78906e-015 -3.97569e-016 9.54166e-015 -3.1477 -1.685 0.8462 -2.78299e-015 1.98785e-015 3.18055e-015 -0.8055 -1.585 0.7955 -3.18055e-015 3.18055e-015 -3.18055e-015 8.367 -8.2066 0.5982 152.815 -48.6466 161.758 2.1923 -43.463 -0.4932 9.49058 5.18744 -0.135673 0.7333 -45.8593 -2.6451 10.5438 32.4556 -7.48252 -8.367 -8.2066 0.5982 -158.489 -35.5503 -169.049 -2.1923 -43.463 -0.4931 -13.54 32.4737 11.3939 -0.7333 -45.8593 -2.6451 -12.85 21.552 2.10766 
